<?xml version="1.0" encoding="utf-8"?>
<!-- Generator: Adobe Illustrator 24.1.2, SVG Export Plug-In . SVG Version: 6.00 Build 0)  -->
<svg version="1.1" id="Layer_1" xmlns="http://www.w3.org/2000/svg" xmlns:xlink="http://www.w3.org/1999/xlink" x="0px" y="0px"
	 viewBox="0 0 24 24" style="enable-background:new 0 0 24 24;" xml:space="preserve">
<style type="text/css">
	.st0{fill:#FFFFFF;}
</style>
<g id="Viber">
	<path class="st0" d="M12,1.8c-5,0-10.2,0.7-10.2,8.8c0,4.3,1.5,7,4.7,8.1v2.1c0,0.8,0.6,1.4,1.4,1.4c0.4,0,0.8-0.2,1.1-0.5l2-2.3
		H12c5,0,10.2-0.7,10.2-8.8S17,1.8,12,1.8z M12,8.3c1,0,1.9,0.8,1.9,1.9c0,0.3-0.2,0.5-0.5,0.5c-0.3,0-0.5-0.2-0.5-0.5
		c0-0.5-0.4-0.9-0.9-0.9c-0.3,0-0.5-0.2-0.5-0.5C11.6,8.5,11.8,8.3,12,8.3z M11.6,6.9c0-0.3,0.2-0.5,0.5-0.5c2.1,0,3.7,1.7,3.7,3.7
		c0,0.3-0.2,0.5-0.5,0.5c-0.3,0-0.5-0.2-0.5-0.5c0-1.5-1.3-2.8-2.8-2.8C11.8,7.3,11.6,7.1,11.6,6.9z M16.7,14.3
		c-0.2,1.4-1.4,2.3-2.8,2.3c-1.5,0-4.3-1.8-5.4-2.9s-2.9-4-2.9-5.4c0-1.4,1-2.6,2.3-2.8h0.9c0.2,0,0.3,0.1,0.4,0.3
		c0,0,0.6,1.1,0.9,1.9c0.4,0.7-0.4,1.8-0.8,2.2c0.3,0.7,0.7,1.3,1.2,1.9c0.5,0.5,1.2,0.9,1.9,1.2c0.4-0.5,1-0.8,1.7-0.9
		c0.2,0,0.3,0,0.5,0.1l1.9,0.9c0.2,0.1,0.3,0.2,0.3,0.4L16.7,14.3z M17.2,10.6c-0.3,0-0.5-0.2-0.5-0.5c0-2.6-2.1-4.7-4.7-4.7
		c-0.3,0-0.5-0.2-0.5-0.5c0-0.3,0.2-0.5,0.5-0.5c3.1,0,5.6,2.5,5.6,5.6C17.6,10.4,17.4,10.6,17.2,10.6z"/>
</g>
</svg>
